<?xml version="1.0" encoding="UTF-8"?>
<!--
    BetterProgressBar.WinUI3 — Application / NuGet icon  256×256
    Author:  ZipGenius
    License: MIT
-->
<svg width="256" height="256" viewBox="0 0 256 256" xmlns="http://www.w3.org/2000/svg">
  <defs>
    <linearGradient id="bg" x1="0" y1="0" x2="1" y2="1">
      <stop offset="0%" stop-color="#0078D4"/>
      <stop offset="100%" stop-color="#005FAD"/>
    </linearGradient>
    <linearGradient id="fill" x1="0" y1="0" x2="1" y2="0">
      <stop offset="0%" stop-color="#ffffff" stop-opacity="0.95"/>
      <stop offset="100%" stop-color="#ffffff" stop-opacity="0.70"/>
    </linearGradient>
  </defs>
  <rect width="256" height="256" rx="52" fill="url(#bg)"/>
  <!-- track -->
  <rect x="28" y="110" width="200" height="36" rx="8" fill="#ffffff" fill-opacity="0.22"/>
  <!-- fill bar (~57%) -->
  <rect x="28" y="110" width="130" height="36" rx="8" fill="url(#fill)"/>
  <!-- ticks above -->
  <line x1="28"  y1="103" x2="28"  y2="95"  stroke="#fff" stroke-width="3"   stroke-opacity="0.80" stroke-linecap="round"/>
  <line x1="78"  y1="106" x2="78"  y2="100" stroke="#fff" stroke-width="2"   stroke-opacity="0.55" stroke-linecap="round"/>
  <line x1="128" y1="105" x2="128" y2="98"  stroke="#fff" stroke-width="2.5" stroke-opacity="0.65" stroke-linecap="round"/>
  <line x1="178" y1="106" x2="178" y2="100" stroke="#fff" stroke-width="2"   stroke-opacity="0.55" stroke-linecap="round"/>
  <line x1="228" y1="103" x2="228" y2="95"  stroke="#fff" stroke-width="3"   stroke-opacity="0.80" stroke-linecap="round"/>
  <!-- ticks below -->
  <line x1="28"  y1="153" x2="28"  y2="161" stroke="#fff" stroke-width="3"   stroke-opacity="0.80" stroke-linecap="round"/>
  <line x1="78"  y1="153" x2="78"  y2="158" stroke="#fff" stroke-width="2"   stroke-opacity="0.55" stroke-linecap="round"/>
  <line x1="128" y1="153" x2="128" y2="159" stroke="#fff" stroke-width="2.5" stroke-opacity="0.65" stroke-linecap="round"/>
  <line x1="178" y1="153" x2="178" y2="158" stroke="#fff" stroke-width="2"   stroke-opacity="0.55" stroke-linecap="round"/>
  <line x1="228" y1="153" x2="228" y2="161" stroke="#fff" stroke-width="3"   stroke-opacity="0.80" stroke-linecap="round"/>
  <!-- percentage label -->
</svg>
