<?xml version="1.0" encoding="UTF-8"?>
<!--
    BetterProgressBar.WinUI3 — Application / NuGet icon  128×128
    Author:  ZipGenius
    License: MIT
-->
<svg width="128" height="128" viewBox="0 0 128 128" xmlns="http://www.w3.org/2000/svg">
  <defs>
    <linearGradient id="bg" x1="0" y1="0" x2="1" y2="1">
      <stop offset="0%" stop-color="#0078D4"/>
      <stop offset="100%" stop-color="#005FAD"/>
    </linearGradient>
    <linearGradient id="fill" x1="0" y1="0" x2="1" y2="0">
      <stop offset="0%" stop-color="#ffffff" stop-opacity="0.95"/>
      <stop offset="100%" stop-color="#ffffff" stop-opacity="0.70"/>
    </linearGradient>
  </defs>
  <rect width="128" height="128" rx="26" fill="url(#bg)"/>
  <rect x="14" y="55" width="100" height="18" rx="4" fill="#ffffff" fill-opacity="0.22"/>
  <rect x="14" y="55" width="65"  height="18" rx="4" fill="url(#fill)"/>
  <line x1="14"  y1="51" x2="14"  y2="47" stroke="#fff" stroke-width="2"   stroke-opacity="0.80" stroke-linecap="round"/>
  <line x1="39"  y1="53" x2="39"  y2="50" stroke="#fff" stroke-width="1.5" stroke-opacity="0.55" stroke-linecap="round"/>
  <line x1="64"  y1="52" x2="64"  y2="48" stroke="#fff" stroke-width="1.5" stroke-opacity="0.65" stroke-linecap="round"/>
  <line x1="89"  y1="53" x2="89"  y2="50" stroke="#fff" stroke-width="1.5" stroke-opacity="0.55" stroke-linecap="round"/>
  <line x1="114" y1="51" x2="114" y2="47" stroke="#fff" stroke-width="2"   stroke-opacity="0.80" stroke-linecap="round"/>
  <line x1="14"  y1="73" x2="14"  y2="77" stroke="#fff" stroke-width="2"   stroke-opacity="0.80" stroke-linecap="round"/>
  <line x1="39"  y1="73" x2="39"  y2="76" stroke="#fff" stroke-width="1.5" stroke-opacity="0.55" stroke-linecap="round"/>
  <line x1="64"  y1="73" x2="64"  y2="76" stroke="#fff" stroke-width="1.5" stroke-opacity="0.65" stroke-linecap="round"/>
  <line x1="89"  y1="73" x2="89"  y2="76" stroke="#fff" stroke-width="1.5" stroke-opacity="0.55" stroke-linecap="round"/>
  <line x1="114" y1="73" x2="114" y2="77" stroke="#fff" stroke-width="2"   stroke-opacity="0.80" stroke-linecap="round"/>
</svg>
