<?xml version="1.0" encoding="UTF-8"?>
<!--
    BetterProgressBar.WinUI3 — Application / NuGet icon  64×64
    Author:  ZipGenius
    License: MIT
-->
<svg width="64" height="64" viewBox="0 0 64 64" xmlns="http://www.w3.org/2000/svg">
  <defs>
    <linearGradient id="bg" x1="0" y1="0" x2="1" y2="1">
      <stop offset="0%" stop-color="#0078D4"/>
      <stop offset="100%" stop-color="#005FAD"/>
    </linearGradient>
    <linearGradient id="fill" x1="0" y1="0" x2="1" y2="0">
      <stop offset="0%" stop-color="#ffffff" stop-opacity="0.95"/>
      <stop offset="100%" stop-color="#ffffff" stop-opacity="0.70"/>
    </linearGradient>
  </defs>
  <rect width="64" height="64" rx="13" fill="url(#bg)"/>
  <rect x="7" y="27" width="50" height="10" rx="2.5" fill="#ffffff" fill-opacity="0.22"/>
  <rect x="7" y="27" width="32" height="10" rx="2.5" fill="url(#fill)"/>
  <line x1="7"  y1="25" x2="7"  y2="22" stroke="#fff" stroke-width="1.5" stroke-opacity="0.80" stroke-linecap="round"/>
  <line x1="20" y1="26" x2="20" y2="24" stroke="#fff" stroke-width="1"   stroke-opacity="0.55" stroke-linecap="round"/>
  <line x1="32" y1="25" x2="32" y2="23" stroke="#fff" stroke-width="1"   stroke-opacity="0.65" stroke-linecap="round"/>
  <line x1="44" y1="26" x2="44" y2="24" stroke="#fff" stroke-width="1"   stroke-opacity="0.55" stroke-linecap="round"/>
  <line x1="57" y1="25" x2="57" y2="22" stroke="#fff" stroke-width="1.5" stroke-opacity="0.80" stroke-linecap="round"/>
  <line x1="7"  y1="37" x2="7"  y2="40" stroke="#fff" stroke-width="1.5" stroke-opacity="0.80" stroke-linecap="round"/>
  <line x1="20" y1="37" x2="20" y2="39" stroke="#fff" stroke-width="1"   stroke-opacity="0.55" stroke-linecap="round"/>
  <line x1="32" y1="37" x2="32" y2="40" stroke="#fff" stroke-width="1"   stroke-opacity="0.65" stroke-linecap="round"/>
  <line x1="44" y1="37" x2="44" y2="39" stroke="#fff" stroke-width="1"   stroke-opacity="0.55" stroke-linecap="round"/>
  <line x1="57" y1="37" x2="57" y2="40" stroke="#fff" stroke-width="1.5" stroke-opacity="0.80" stroke-linecap="round"/>
</svg>
